<svg width="502" height="107" viewBox="0 0 502 107" fill="none" xmlns="http://www.w3.org/2000/svg">
<path d="M24.7786 23.64V44.088H57.7546V63.096H24.7786V85.272H62.0746V105H0.154563V3.912H62.0746V23.64H24.7786ZM102.685 38.04C105.565 33.624 109.165 30.168 113.485 27.672C117.805 25.08 122.605 23.784 127.885 23.784V49.848H121.117C114.973 49.848 110.365 51.192 107.293 53.88C104.221 56.472 102.685 61.08 102.685 67.704V105H78.0608V24.648H102.685V38.04ZM164.279 38.04C167.159 33.624 170.759 30.168 175.079 27.672C179.399 25.08 184.199 23.784 189.479 23.784V49.848H182.711C176.567 49.848 171.959 51.192 168.887 53.88C165.815 56.472 164.279 61.08 164.279 67.704V105H139.655V24.648H164.279V38.04ZM237.824 106.152C229.952 106.152 222.848 104.472 216.512 101.112C210.272 97.752 205.328 92.952 201.68 86.712C198.128 80.472 196.352 73.176 196.352 64.824C196.352 56.568 198.176 49.32 201.824 43.08C205.472 36.744 210.464 31.896 216.8 28.536C223.136 25.176 230.24 23.496 238.112 23.496C245.984 23.496 253.088 25.176 259.424 28.536C265.76 31.896 270.752 36.744 274.4 43.08C278.048 49.32 279.872 56.568 279.872 64.824C279.872 73.08 278 80.376 274.256 86.712C270.608 92.952 265.568 97.752 259.136 101.112C252.8 104.472 245.696 106.152 237.824 106.152ZM237.824 84.84C242.528 84.84 246.512 83.112 249.776 79.656C253.136 76.2 254.816 71.256 254.816 64.824C254.816 58.392 253.184 53.448 249.92 49.992C246.752 46.536 242.816 44.808 238.112 44.808C233.312 44.808 229.328 46.536 226.16 49.992C222.992 53.352 221.408 58.296 221.408 64.824C221.408 71.256 222.944 76.2 226.016 79.656C229.184 83.112 233.12 84.84 237.824 84.84ZM317.56 38.04C320.44 33.624 324.04 30.168 328.36 27.672C332.68 25.08 337.48 23.784 342.76 23.784V49.848H335.992C329.848 49.848 325.24 51.192 322.168 53.88C319.096 56.472 317.56 61.08 317.56 67.704V105H292.936V24.648H317.56V38.04ZM386.93 0.311992L384.05 69.288H363.17L360.29 0.311992H386.93ZM373.97 106.152C369.65 106.152 366.098 104.904 363.314 102.408C360.626 99.816 359.282 96.648 359.282 92.904C359.282 89.064 360.626 85.848 363.314 83.256C366.098 80.664 369.65 79.368 373.97 79.368C378.194 79.368 381.65 80.664 384.338 83.256C387.122 85.848 388.514 89.064 388.514 92.904C388.514 96.648 387.122 99.816 384.338 102.408C381.65 104.904 378.194 106.152 373.97 106.152ZM443.32 0.311992L440.44 69.288H419.56L416.68 0.311992H443.32ZM430.36 106.152C426.04 106.152 422.488 104.904 419.704 102.408C417.016 99.816 415.672 96.648 415.672 92.904C415.672 89.064 417.016 85.848 419.704 83.256C422.488 80.664 426.04 79.368 430.36 79.368C434.584 79.368 438.04 80.664 440.728 83.256C443.512 85.848 444.904 89.064 444.904 92.904C444.904 96.648 443.512 99.816 440.728 102.408C438.04 104.904 434.584 106.152 430.36 106.152ZM499.711 0.311992L496.831 69.288H475.951L473.071 0.311992H499.711ZM486.751 106.152C482.431 106.152 478.879 104.904 476.095 102.408C473.407 99.816 472.063 96.648 472.063 92.904C472.063 89.064 473.407 85.848 476.095 83.256C478.879 80.664 482.431 79.368 486.751 79.368C490.975 79.368 494.431 80.664 497.119 83.256C499.903 85.848 501.295 89.064 501.295 92.904C501.295 96.648 499.903 99.816 497.119 102.408C494.431 104.904 490.975 106.152 486.751 106.152Z" fill="#FFCA30"/>
</svg>
