<svg width="25" height="25" viewBox="0 0 25 25" fill="none" xmlns="http://www.w3.org/2000/svg">
<path d="M2.38095 16.6667V2.38095H0V0H3.57143C3.88716 0 4.18996 0.125425 4.41322 0.348682C4.63648 0.57194 4.76191 0.874742 4.76191 1.19048V15.4762H19.569L21.95 5.95238H7.14286V3.57143H23.4762C23.6572 3.57143 23.8357 3.61269 23.9984 3.69207C24.161 3.77144 24.3034 3.88685 24.4147 4.02951C24.526 4.17217 24.6034 4.33833 24.6408 4.51537C24.6783 4.69241 24.6749 4.87566 24.631 5.05119L21.6548 16.956C21.5903 17.2134 21.4416 17.4419 21.2324 17.6052C21.0232 17.7684 20.7654 17.8571 20.5 17.8571H3.57143C3.25569 17.8571 2.95289 17.7317 2.72964 17.5085C2.50638 17.2852 2.38095 16.9824 2.38095 16.6667ZM4.76191 25C4.13044 25 3.52483 24.7491 3.07832 24.3026C2.6318 23.8561 2.38095 23.2505 2.38095 22.619C2.38095 21.9876 2.6318 21.382 3.07832 20.9355C3.52483 20.4889 4.13044 20.2381 4.76191 20.2381C5.39337 20.2381 5.99898 20.4889 6.44549 20.9355C6.89201 21.382 7.14286 21.9876 7.14286 22.619C7.14286 23.2505 6.89201 23.8561 6.44549 24.3026C5.99898 24.7491 5.39337 25 4.76191 25ZM19.0476 25C18.4162 25 17.8105 24.7491 17.364 24.3026C16.9175 23.8561 16.6667 23.2505 16.6667 22.619C16.6667 21.9876 16.9175 21.382 17.364 20.9355C17.8105 20.4889 18.4162 20.2381 19.0476 20.2381C19.6791 20.2381 20.2847 20.4889 20.7312 20.9355C21.1777 21.382 21.4286 21.9876 21.4286 22.619C21.4286 23.2505 21.1777 23.8561 20.7312 24.3026C20.2847 24.7491 19.6791 25 19.0476 25Z" fill="#FFC83A"/>
</svg>
