<svg width="563" height="425" viewBox="0 0 563 425" fill="none" xmlns="http://www.w3.org/2000/svg">
<path d="M343.419 414.846C306.661 423.834 267.015 425.279 229.455 423.353C181.622 420.785 133.789 408.425 92.0558 384.509C88.364 382.422 84.8327 380.335 81.3015 378.088C72.7943 372.631 64.9292 366.852 57.8666 360.753C47.7543 351.925 38.4445 342.133 30.4189 331.379C12.4415 307.142 -2.16521 274.557 1.36607 243.739C5.5394 207.784 36.5184 194.622 63.9661 177.608C82.7461 165.89 98.7974 150.642 111.799 132.664C114.849 128.491 117.577 123.996 119.985 119.663C128.011 105.216 133.629 89.8072 141.815 75.3611C152.088 57.2231 164.126 40.0483 180.017 27.0467C186.758 21.4288 194.303 16.4529 202.649 12.6006C240.851 -5.37688 286.437 -3.1297 324.639 13.0821C414.687 51.2841 459.47 149.518 465.73 242.776C471.187 324.156 423.996 395.263 343.419 414.846Z" fill="white" fill-opacity="0.15"/>
<path d="M445.607 368.142L443.038 368.944V369.586C442.396 368.784 441.594 368.142 440.31 368.142C412.701 366.536 364.066 361.079 297.774 343.423C226.828 324.643 180.439 298.639 157.165 283.07C155.881 282.267 154.597 282.107 153.473 282.428L153.634 280.983L152.51 280.02L150.584 284.835C150.584 284.996 150.423 284.996 150.423 285.156L150.263 285.477C149.781 286.762 149.942 288.206 150.905 289.651C181.081 333.631 232.124 363.968 300.182 379.698C352.349 391.737 409.01 382.748 440.791 375.525C442.236 375.204 443.199 374.241 443.52 373.117L445.607 368.142Z" fill="#F3C11B"/>
<path d="M152.831 284.835C149.942 280.662 154.917 275.526 159.091 278.415C182.365 293.985 228.753 319.988 299.7 338.768C365.831 356.264 414.627 361.721 442.235 363.487C446.569 363.808 447.051 369.907 442.877 370.87C411.096 378.093 354.274 387.082 302.268 375.044C234.05 359.153 183.168 328.816 152.831 284.835Z" fill="#F3C11B"/>
<path d="M196.17 305.541C196.17 305.541 189.428 304.418 190.07 308.11C190.713 311.962 198.096 317.259 200.985 316.135C203.875 315.012 202.911 311.48 201.788 310.196C200.504 308.912 196.17 305.541 196.17 305.541Z" fill="url(#paint0_linear_56_1075)"/>
<path d="M336.458 361.24C336.458 361.24 332.445 362.042 335.655 364.61C338.865 367.178 352.99 372.636 356.682 370.389C360.374 368.142 344.162 359.474 344.162 359.474L336.458 361.24Z" fill="url(#paint1_linear_56_1075)"/>
<path d="M386.538 223.198C385.254 224.001 380.92 222.235 375.302 219.186C375.302 219.186 375.142 219.186 375.142 219.025C373.376 218.062 371.45 216.938 369.524 215.815C357.806 208.752 343.521 198.64 337.903 194.627C337.421 194.306 337.1 193.985 336.779 193.664C335.495 192.38 334.853 190.775 334.692 189.009C334.692 188.849 334.692 188.688 334.692 188.528C334.853 184.675 337.903 184.354 340.15 183.552C340.471 183.391 341.113 183.712 341.915 184.194C345.768 186.12 354.917 192.701 364.066 199.924C366.634 202.011 369.363 204.258 371.771 206.345C372.413 206.826 373.055 207.468 373.697 207.95C382.204 215.333 388.625 221.914 386.538 223.198Z" fill="#F8D7C2"/>
<path d="M373.697 207.95L369.684 215.494L369.523 215.815C367.597 214.691 337.581 196.553 334.853 193.182C333.729 191.738 332.124 189.17 330.679 186.601C330.519 186.441 330.519 186.28 330.358 186.12C329.395 184.515 328.593 183.07 327.95 181.786C327.79 181.626 327.79 181.465 327.629 181.144C326.987 180.02 326.506 179.218 326.506 179.218L330.519 177.131L338.865 173.118L339.507 172.797L343.039 182.749L364.066 200.085L371.77 206.505L373.697 207.95Z" fill="#F8D7C2"/>
<path d="M339.187 193.985C338.384 194.146 337.421 193.985 336.618 193.504C334.692 192.38 332.606 189.812 330.519 186.441C330.358 186.281 330.358 186.12 330.198 185.96C329.395 184.675 328.593 183.231 327.79 181.626C327.63 181.465 327.63 181.305 327.469 180.984C327.148 180.342 326.827 179.7 326.506 179.057C326.346 178.576 326.024 178.094 325.864 177.613C321.37 168.303 317.357 157.549 315.591 152.573C314.789 150.326 315.11 147.757 316.875 145.992C320.888 141.819 326.506 147.757 330.519 154.339C332.606 157.87 336.297 165.414 339.026 172.958C340.471 176.81 341.594 180.823 342.076 184.194C342.718 189.33 342.236 193.183 339.187 193.985Z" fill="#F8D7C2"/>
<path opacity="0.2" d="M375.142 219.025C373.376 218.062 371.45 216.938 369.524 215.815C367.598 214.691 337.582 196.553 334.853 193.183C333.729 191.738 332.124 189.17 330.68 186.601C330.519 186.441 330.519 186.28 330.359 186.12C329.556 184.836 328.753 183.391 327.951 181.786C327.79 181.626 327.79 181.465 327.63 181.144C326.988 180.02 326.506 179.218 326.506 179.218C326.346 178.736 326.025 178.255 325.864 177.773L330.68 177.131L339.668 173.439C339.668 173.439 329.556 180.181 334.853 189.009C335.334 189.812 335.977 190.614 336.779 191.577C337.421 192.38 338.384 193.183 339.508 194.146C346.41 200.245 360.696 209.715 370.005 215.654C371.771 216.938 373.697 218.062 375.142 219.025Z" fill="#F8D7C2"/>
<path d="M340.471 173.118L333.408 176.81L326.506 180.342L322.654 174.082L317.999 166.377L323.456 144.066C323.456 144.066 328.272 145.992 335.174 161.401C339.187 170.229 340.471 173.118 340.471 173.118Z" fill="#FFC83A"/>
<path d="M341.594 354.016C341.594 354.337 341.594 354.819 341.594 355.14C341.434 359.313 340.952 361.721 340.15 362.524C338.866 363.808 337.1 361.079 334.853 355.14C333.248 350.967 331.482 345.188 329.395 338.126C328.914 336.52 328.432 334.755 328.111 333.15C322.654 312.765 318.962 298.479 319.283 290.614C319.283 287.725 319.925 285.638 321.209 284.354C330.037 275.365 337.903 310.999 340.792 336.039C341.273 343.262 341.755 349.843 341.594 354.016Z" fill="#F8D7C2"/>
<path d="M357.485 367.82C357.485 367.981 357.485 367.981 357.485 368.142C356.522 371.673 337.421 363.968 336.458 363.166C335.655 362.524 334.853 356.585 334.692 355.14C334.692 354.979 334.692 354.819 334.692 354.819H336.458L340.631 354.658C340.631 354.658 340.952 354.819 341.434 355.14C344.805 357.066 357.485 364.61 357.485 367.82Z" fill="#F8D7C2"/>
<path d="M268.721 215.494C273.857 214.21 278.994 217.58 279.796 222.877C280.438 227.051 280.92 232.669 279.957 239.892C277.87 258.03 281.241 288.206 274.5 291.737C267.758 295.269 258.609 276.81 257.325 259.153C256.201 243.262 252.349 223.519 256.683 219.988C259.09 218.222 264.227 216.617 268.721 215.494Z" fill="#F8D7C2"/>
<path d="M258.609 297.837C258.448 297.837 258.288 297.837 258.127 297.837C246.41 299.121 231.161 298.961 219.123 298.158C218.962 298.158 218.802 298.158 218.641 298.158C217.678 298.158 216.876 297.997 216.073 297.997C211.097 297.676 206.924 297.034 204.035 296.553C188.465 293.503 195.527 290.293 216.234 287.725H216.394C219.604 287.404 223.136 286.922 226.988 286.601C231.803 286.119 236.298 285.798 240.31 285.477C251.386 284.514 260.053 284.033 266.153 284.514C271.45 284.835 274.821 285.959 276.265 287.885C279.957 293.503 271.45 296.553 258.609 297.837Z" fill="#F8D7C2"/>
<path d="M206.603 289.49C205.8 289.33 194.725 289.169 193.762 290.453C192.799 291.577 196.33 314.209 198.898 313.888C205.319 313.246 199.861 305.863 200.343 302.171C200.824 298.64 206.282 297.034 206.282 297.034" fill="#F8D7C2"/>
<path d="M275.944 293.343C273.536 295.75 266.795 297.195 258.609 297.998C258.448 297.998 258.288 297.998 258.127 297.998C244.162 299.282 226.346 298.64 219.122 298.319C218.962 298.319 218.801 298.319 218.641 298.319C217.036 298.319 216.073 298.158 216.073 298.158V297.998L215.431 287.885L218.32 287.564H218.48L240.31 285.317L262.621 283.07L259.09 273.118L278.673 270.871L281.401 270.55C281.241 270.71 282.204 286.922 275.944 293.343Z" fill="#F8D7C2"/>
<path opacity="0.2" d="M265.351 279.057C265.19 282.107 265.993 283.551 265.993 284.354C265.993 284.514 265.993 284.675 265.832 284.835C265.511 285.317 234.693 286.922 218.32 287.564H218.16C217.518 287.564 216.715 287.564 216.073 287.725C219.283 287.404 222.815 286.922 226.667 286.601C231.482 286.119 235.977 285.798 239.99 285.477L262.301 283.23L258.77 273.278L278.352 271.031C279.797 272.155 281.081 273.118 281.081 273.118C281.081 273.118 265.511 275.526 265.351 279.057Z" fill="#F8D7C2"/>
<path d="M286.378 219.828C290.391 216.457 296.49 217.259 299.54 221.433C301.948 224.803 304.837 229.779 307.245 236.681C313.344 253.856 329.717 279.538 325.222 285.638C320.728 291.737 304.356 279.217 295.527 263.969C287.502 250.165 275.303 234.113 277.71 229.137C278.995 226.409 282.847 222.717 286.378 219.828Z" fill="#F8D7C2"/>
<path d="M340.631 335.878L331.803 337.644L329.395 338.126C329.395 338.126 316.394 288.848 315.431 288.046C314.307 287.243 299.54 270.71 299.54 270.71L318.481 259.795L319.283 259.314C319.283 259.314 328.432 276.489 330.358 282.267C331.964 288.206 339.026 316.938 340.631 335.878Z" fill="#F8D7C2"/>
<path opacity="0.2" d="M357.485 367.821C357.485 367.981 357.485 367.981 357.485 368.142C356.521 371.673 337.42 363.968 336.457 363.166C335.655 362.524 334.852 356.585 334.692 355.14C333.087 350.967 331.321 345.188 329.234 338.126C329.234 338.126 316.233 288.848 315.27 288.046C314.146 287.243 299.379 270.71 299.379 270.71L318.319 259.795C318.48 259.795 318.48 259.795 318.48 259.795C318.48 259.795 307.084 269.105 308.047 274.563C309.01 280.181 317.677 284.675 317.998 286.28C317.998 286.441 318.48 288.046 319.122 290.453C321.53 299.603 327.469 321.914 331.642 337.644C334.05 346.472 335.815 353.053 336.297 354.177C336.297 354.337 336.457 354.498 336.457 354.658C337.26 356.906 337.902 359.955 340.149 362.363C341.273 363.647 342.717 364.771 344.965 365.573C350.904 367.981 354.274 368.623 357.485 367.821Z" fill="#F8D7C2"/>
<path d="M319.925 259.474L308.047 267.34L299.861 272.797L282.044 246.794L282.526 273.118L265.512 275.044L264.548 275.205L258.609 275.847C258.609 275.847 256.523 270.871 252.831 245.991C249.139 221.112 259.091 214.049 259.091 214.049L260.375 213.568L262.462 212.926L279.637 207.789L303.874 221.433L319.925 259.474Z" fill="url(#paint2_linear_56_1075)"/>
<path opacity="0.5" d="M264.387 275.205L258.448 275.847C258.448 275.847 256.362 270.871 252.67 245.991C248.978 221.112 258.93 214.049 258.93 214.049L260.214 213.568L264.227 215.333L267.277 219.186C267.277 219.186 258.609 220.149 257.646 233.15C256.683 245.51 258.448 265.253 264.387 275.205Z" fill="url(#paint3_linear_56_1075)"/>
<path d="M329.556 154.659C330.359 166.698 314.789 185.799 309.973 195.269C305.158 204.579 303.874 221.593 303.874 221.593C289.749 227.693 275.784 223.359 267.277 219.346C261.98 216.778 258.609 214.21 258.609 214.21C264.709 198.319 271.611 171.513 276.908 154.338C278.673 148.399 280.279 143.584 281.563 140.855C286.378 130.101 302.269 133.311 302.269 133.311L321.209 142.139C321.049 142.139 328.914 145.029 329.556 154.659Z" fill="url(#paint4_linear_56_1075)"/>
<path d="M244.163 161.562C241.916 160.919 240.151 159.154 239.348 156.907C235.335 145.831 221.05 105.864 224.741 102.332C229.075 98.159 252.35 154.98 250.584 157.709C249.139 159.635 248.016 162.525 244.163 161.562Z" fill="#F8D7C2"/>
<path d="M290.872 141.818C290.872 144.226 289.267 146.313 287.02 147.276C277.389 151.77 244.645 166.537 240.953 159.475C236.619 151.289 266.314 140.053 275.303 137.806C282.847 136.2 291.033 136.04 290.872 141.818Z" fill="#F8D7C2"/>
<path d="M269.043 155.623C269.043 155.623 249.781 165.253 243.04 162.043C238.064 159.796 232.285 139.571 229.396 128.977C228.433 124.965 227.791 122.396 227.791 122.396L236.298 119.668L249.46 146.313L262.783 141.497L263.104 141.337L263.746 141.176L264.227 142.621L269.043 155.623Z" fill="#F8D7C2"/>
<path opacity="0.2" d="M269.042 155.623C269.042 155.623 249.781 165.253 243.039 162.043C238.063 159.796 232.285 139.571 229.396 128.978C232.124 135.88 241.434 158.03 244.965 159.475C249.299 161.241 259.09 158.672 261.98 154.82C264.548 151.449 263.264 143.745 262.782 141.498C262.622 141.177 262.622 141.016 262.622 141.016L263.103 141.498L264.227 142.621L269.042 155.623Z" fill="#F8D7C2"/>
<path d="M320.246 142.621C304.195 144.066 301.787 133.311 301.787 133.311C301.787 133.311 307.726 130.101 311.257 124.323L314.307 127.693L319.444 133.472C319.122 134.435 318.962 135.398 318.962 136.361C318.801 139.892 320.246 142.621 320.246 142.621Z" fill="#F8D7C2"/>
<path opacity="0.2" d="M319.283 133.472C318.962 134.435 318.802 135.398 318.802 136.361C313.023 134.114 311.418 126.409 311.418 126.409L314.307 127.693L319.283 133.472Z" fill="#F8D7C2"/>
<path d="M337.421 106.024C337.421 107.95 337.26 110.197 336.779 112.605C336.618 113.568 336.457 114.531 336.136 115.494C333.568 125.767 327.308 136.842 319.604 134.756C309.331 131.866 308.207 115.976 308.207 115.976C305.96 90.2936 337.26 95.4301 337.421 106.024Z" fill="#F8D7C2"/>
<path opacity="0.2" d="M318.801 112.766C318.801 112.766 318.319 110.84 316.714 111.642C315.109 112.445 314.146 116.297 313.665 119.507C313.183 122.878 312.541 125.767 310.133 125.607C307.726 125.446 311.257 110.84 311.257 111C311.257 111.161 317.838 109.555 317.998 109.555C318.159 109.555 319.443 111.963 319.443 112.124C319.604 112.284 318.801 112.766 318.801 112.766Z" fill="#F8D7C2"/>
<path opacity="0.2" d="M336.94 112.605C336.779 113.568 336.619 114.531 336.298 115.494C335.174 115.173 333.088 114.531 331.161 113.889C328.433 112.926 326.025 111.963 324.58 113.247C323.136 114.531 321.049 120.952 317.839 119.507C317.839 119.507 323.136 109.555 323.457 109.555C323.778 109.555 336.137 108.592 336.458 108.753C336.458 108.592 336.779 110.679 336.94 112.605Z" fill="#F8D7C2"/>
<path d="M308.529 104.74C309.492 102.653 310.937 101.048 312.863 99.764C315.913 97.5168 319.283 95.4302 323.296 96.0722C324.901 96.2327 326.346 96.8748 327.951 97.3563C329.075 97.6773 330.198 97.9984 331.482 97.9984C332.445 97.9984 333.248 97.8379 334.211 97.9984C335.977 98.1589 337.903 98.8009 338.866 100.246C339.829 101.53 339.99 103.295 340.311 104.74C340.632 106.185 341.274 107.469 342.397 108.592C343.842 110.197 344.965 113.087 342.718 114.531C341.916 115.013 340.953 115.173 340.15 115.173C337.1 115.173 334.211 113.889 331.322 112.926C329.556 112.284 327.47 111.481 325.543 111.642C321.37 112.124 321.531 117.581 318.32 119.347C317.036 119.989 317.839 117.26 317.999 116.778C318.16 115.655 318.32 114.531 318.481 113.408C318.641 112.605 318.962 110.518 317.518 110.518C316.073 110.518 314.789 112.284 314.308 113.408C313.505 115.334 313.344 117.42 312.863 119.347C312.381 121.112 312.542 125.928 310.295 125.446C309.653 125.286 309.171 124.001 309.011 123.52C308.529 122.396 308.208 121.112 307.887 119.989C306.603 115.334 306.442 109.716 308.529 104.74Z" fill="black"/>
<path d="M292.316 133.311C292.316 133.311 280.278 133.632 262.461 140.695L267.758 157.549L287.019 151.931C287.019 151.931 293.6 140.534 293.6 140.053C293.6 139.571 292.316 133.311 292.316 133.311Z" fill="#FFC83A"/>
<path opacity="0.5" d="M333.408 176.81L326.506 180.342L322.653 174.082C323.135 173.44 324.579 171.674 325.222 169.427C325.222 169.266 324.74 178.094 333.408 176.81Z" fill="url(#paint5_linear_56_1075)"/>
<path opacity="0.5" d="M272.252 184.996C270.647 190.293 267.437 194.146 266.474 197.998C264.387 206.184 263.906 212.123 267.116 219.186C261.819 216.617 258.448 214.049 258.448 214.049C264.548 198.158 271.289 172.155 276.586 154.98L284.291 152.252C284.291 152.252 278.673 155.462 274.5 170.711C273.376 174.563 273.536 181.144 272.252 184.996Z" fill="#CBCBCB"/>
<path opacity="0.5" d="M308.047 267.5L299.861 272.958L282.044 246.954V246.633V240.534C282.044 240.534 292.317 255.943 294.564 259.474C296.651 262.524 300.021 268.142 308.047 267.5Z" fill="url(#paint6_linear_56_1075)"/>
<path d="M230.359 108.432C230.359 108.432 229.235 105.864 228.754 104.258C228.272 102.653 231.161 97.5169 230.038 96.5538C228.914 95.5908 227.791 99.122 226.667 98.9615C225.383 98.801 223.938 92.22 218.962 94.4672C213.826 96.7144 215.752 100.888 218.32 103.777C220.888 106.666 224.259 108.271 225.062 111.161" fill="#F8D7C2"/>
<path d="M380.76 214.531C380.76 214.531 383.007 216.136 384.451 217.099C385.896 217.902 391.674 216.296 392.316 217.42C392.959 218.704 389.427 219.025 389.267 220.309C389.106 221.593 395.206 224.322 391.995 228.816C388.785 233.311 385.093 230.743 382.686 227.532C380.278 224.483 379.475 220.791 376.907 219.346" fill="#F8D7C2"/>
<path d="M208.588 359.308C208.588 359.308 206.662 358.666 203.131 357.222C199.76 355.777 194.784 353.69 189.166 350.801C183.548 347.912 176.967 344.381 170.225 340.047C163.484 335.873 156.582 330.898 149.84 325.601C143.259 320.304 136.839 314.525 131.221 308.907C125.603 303.129 120.948 297.35 117.096 292.375C115.169 289.806 113.564 287.399 112.12 285.312C110.675 283.065 109.552 281.139 108.588 279.694C106.823 276.484 105.699 274.558 105.699 274.558C105.699 274.558 106.823 276.323 108.909 279.373C109.873 280.978 111.317 282.744 112.762 284.83C114.367 286.917 115.972 289.164 118.059 291.732C122.072 296.708 127.047 302.166 132.665 307.784C138.283 313.402 144.543 319.02 151.285 324.156C157.866 329.453 164.768 334.429 171.349 338.763C177.93 343.097 184.351 346.949 189.808 349.999C195.426 353.048 200.081 355.456 203.452 357.061C206.662 358.345 208.588 359.308 208.588 359.308Z" fill="url(#paint7_linear_56_1075)"/>
<path d="M264.447 397.35C264.447 397.35 262.039 396.868 257.866 396.066C253.692 395.103 247.753 393.819 240.851 391.892C233.789 389.966 225.763 387.398 217.256 384.348C208.749 381.299 199.76 377.607 190.932 373.433C182.264 369.26 173.597 364.605 166.052 359.469C158.508 354.493 151.767 349.196 146.47 344.22C141.012 339.244 137.16 334.589 134.431 331.379C133.147 329.774 132.184 328.329 131.542 327.366C130.9 326.403 130.579 325.922 130.579 325.922C130.579 325.922 130.9 326.403 131.703 327.206C132.505 328.008 133.468 329.453 134.913 330.898C137.642 334.108 141.815 338.442 147.272 343.096C152.73 347.751 159.471 352.888 167.176 357.703C174.72 362.519 183.227 367.173 191.895 371.347C200.563 375.52 209.391 379.212 217.898 382.422C226.405 385.632 234.27 388.361 241.172 390.448C248.074 392.534 253.853 394.3 258.026 395.263C262.039 396.868 264.447 397.35 264.447 397.35Z" fill="url(#paint8_linear_56_1075)"/>
<path d="M551.122 107.303C551.122 106.982 551.122 106.5 551.122 106.179C551.122 99.4379 545.665 93.9805 538.923 93.9805C533.466 93.9805 528.811 97.5118 527.367 102.488C527.046 102.488 526.724 102.488 526.564 102.488C524.317 102.488 522.391 103.29 520.786 104.574C519.02 103.611 516.933 102.969 514.686 102.969C508.908 102.969 503.932 106.982 502.808 112.6C502.006 112.439 466.211 112.6 466.211 112.6C461.717 112.6 458.186 116.131 458.186 120.626C458.186 125.12 461.717 128.651 466.211 128.651H495.103H498.474H503.129H505.697H506.179H521.909H523.354L523.514 128.491C523.675 128.491 523.675 128.651 523.835 128.651H529.935H536.997H542.455H552.888H558.988C561.395 126.404 563 123.194 563 119.663C563 112.921 557.703 107.464 551.122 107.303Z" fill="url(#paint9_linear_56_1075)"/>
<path d="M220.305 38.2825C220.305 37.9615 220.305 37.6405 220.305 37.3194C220.305 31.3805 215.49 26.7256 209.711 26.7256C204.896 26.7256 200.883 29.7753 199.599 34.1092C199.278 34.1092 199.117 34.1092 198.796 34.1092C196.87 34.1092 195.105 34.7512 193.82 35.8748C192.215 35.0723 190.45 34.4302 188.524 34.4302C183.387 34.4302 179.214 37.9615 178.09 42.7769C177.448 42.6164 146.148 42.7769 146.148 42.7769C142.296 42.7769 139.246 45.8266 139.246 49.6789C139.246 53.5312 142.296 56.581 146.148 56.581H171.349H174.398H178.411H180.658H180.979H194.784H196.068L196.228 56.4205C196.389 56.4205 196.389 56.581 196.549 56.581H201.846H207.946H212.6H221.75H227.047C229.133 54.6548 230.417 51.9261 230.417 48.7158C230.738 43.0979 226.084 38.2825 220.305 38.2825Z" fill="url(#paint10_linear_56_1075)"/>
<path d="M406.179 308.105C413.892 308.105 420.144 301.852 420.144 294.14C420.144 286.427 413.892 280.175 406.179 280.175C398.467 280.175 392.215 286.427 392.215 294.14C392.215 301.852 398.467 308.105 406.179 308.105Z" fill="url(#paint11_linear_56_1075)"/>
<path d="M106.181 75.8426C109.372 75.8426 111.959 73.2555 111.959 70.0641C111.959 66.8728 109.372 64.2856 106.181 64.2856C102.989 64.2856 100.402 66.8728 100.402 70.0641C100.402 73.2555 102.989 75.8426 106.181 75.8426Z" fill="url(#paint12_linear_56_1075)"/>
<path d="M448.876 27.368C452.067 27.368 454.655 24.7809 454.655 21.5895C454.655 18.3981 452.067 15.811 448.876 15.811C445.685 15.811 443.098 18.3981 443.098 21.5895C443.098 24.7809 445.685 27.368 448.876 27.368Z" fill="url(#paint13_linear_56_1075)"/>
<path d="M144.543 267.816C147.734 267.816 150.322 265.229 150.322 262.038C150.322 258.846 147.734 256.259 144.543 256.259C141.352 256.259 138.765 258.846 138.765 262.038C138.765 265.229 141.352 267.816 144.543 267.816Z" fill="url(#paint14_linear_56_1075)"/>
<path d="M397.672 164.767C399.622 164.767 401.203 163.186 401.203 161.235C401.203 159.285 399.622 157.704 397.672 157.704C395.722 157.704 394.141 159.285 394.141 161.235C394.141 163.186 395.722 164.767 397.672 164.767Z" fill="url(#paint15_linear_56_1075)"/>
<path d="M277.609 70.0642C280.8 70.0642 283.387 67.4771 283.387 64.2858C283.387 61.0944 280.8 58.5073 277.609 58.5073C274.417 58.5073 271.83 61.0944 271.83 64.2858C271.83 67.4771 274.417 70.0642 277.609 70.0642Z" fill="url(#paint16_linear_56_1075)"/>
<path d="M502.166 268.137C505.358 268.137 507.945 265.55 507.945 262.359C507.945 259.167 505.358 256.58 502.166 256.58C498.975 256.58 496.388 259.167 496.388 262.359C496.388 265.55 498.975 268.137 502.166 268.137Z" fill="url(#paint17_linear_56_1075)"/>
<defs>
<linearGradient id="paint0_linear_56_1075" x1="192.284" y1="305.163" x2="201.424" y2="316.986" gradientUnits="userSpaceOnUse">
<stop offset="0.0326633" stop-color="#454976"/>
<stop offset="1" stop-color="#404EDA"/>
</linearGradient>
<linearGradient id="paint1_linear_56_1075" x1="345.836" y1="359.552" x2="345.836" y2="370.979" gradientUnits="userSpaceOnUse">
<stop offset="0.0326633" stop-color="#076224"/>
<stop offset="1" stop-color="#156629"/>
</linearGradient>
<linearGradient id="paint2_linear_56_1075" x1="280.644" y1="225.229" x2="289.593" y2="271.18" gradientUnits="userSpaceOnUse">
<stop offset="0.0326633" stop-color="#FE8900"/>
<stop offset="1" stop-color="#FE8900"/>
</linearGradient>
<linearGradient id="paint3_linear_56_1075" x1="251.812" y1="244.76" x2="267.091" y2="244.76" gradientUnits="userSpaceOnUse">
<stop offset="0.0326633" stop-color="#1927B2"/>
<stop offset="1" stop-color="#2937C2"/>
</linearGradient>
<linearGradient id="paint4_linear_56_1075" x1="308.405" y1="139.488" x2="283.01" y2="220.75" gradientUnits="userSpaceOnUse">
<stop offset="0.0527638" stop-color="white"/>
<stop offset="1" stop-color="white"/>
</linearGradient>
<linearGradient id="paint5_linear_56_1075" x1="322.718" y1="174.836" x2="333.364" y2="174.836" gradientUnits="userSpaceOnUse">
<stop offset="0.0527638" stop-color="#FFD53C"/>
<stop offset="1" stop-color="#FFC13C"/>
</linearGradient>
<linearGradient id="paint6_linear_56_1075" x1="281.976" y1="256.682" x2="307.967" y2="256.682" gradientUnits="userSpaceOnUse">
<stop offset="0.0326633" stop-color="#1927B2"/>
<stop offset="1" stop-color="#2937C2"/>
</linearGradient>
<linearGradient id="paint7_linear_56_1075" x1="105.572" y1="316.733" x2="208.565" y2="316.733" gradientUnits="userSpaceOnUse">
<stop offset="0.0326633" stop-color="#EEF9FF"/>
<stop offset="1" stop-color="#C2DAFA"/>
</linearGradient>
<linearGradient id="paint8_linear_56_1075" x1="130.549" y1="361.775" x2="264.411" y2="361.775" gradientUnits="userSpaceOnUse">
<stop offset="0.0326633" stop-color="#EEF9FF"/>
<stop offset="1" stop-color="#C2DAFA"/>
</linearGradient>
<linearGradient id="paint9_linear_56_1075" x1="458.169" y1="111.223" x2="563.05" y2="111.223" gradientUnits="userSpaceOnUse">
<stop offset="0.0326633" stop-color="#EEF9FF"/>
<stop offset="1" stop-color="#C2DAFA"/>
</linearGradient>
<linearGradient id="paint10_linear_56_1075" x1="197.007" y1="41.613" x2="303.886" y2="41.613" gradientUnits="userSpaceOnUse">
<stop offset="0.0326633" stop-color="#EEF9FF"/>
<stop offset="1" stop-color="#C2DAFA"/>
</linearGradient>
<linearGradient id="paint11_linear_56_1075" x1="392.137" y1="294.183" x2="420.121" y2="294.183" gradientUnits="userSpaceOnUse">
<stop offset="0.0326633" stop-color="#EEF9FF"/>
<stop offset="1" stop-color="#C2DAFA"/>
</linearGradient>
<linearGradient id="paint12_linear_56_1075" x1="100.38" y1="70.068" x2="111.974" y2="70.068" gradientUnits="userSpaceOnUse">
<stop offset="0.0326633" stop-color="#EEF9FF"/>
<stop offset="1" stop-color="#C2DAFA"/>
</linearGradient>
<linearGradient id="paint13_linear_56_1075" x1="443.1" y1="21.6503" x2="454.693" y2="21.6503" gradientUnits="userSpaceOnUse">
<stop offset="0.0326633" stop-color="#EEF9FF"/>
<stop offset="1" stop-color="#C2DAFA"/>
</linearGradient>
<linearGradient id="paint14_linear_56_1075" x1="138.684" y1="262.002" x2="150.277" y2="262.002" gradientUnits="userSpaceOnUse">
<stop offset="0.0326633" stop-color="#EEF9FF"/>
<stop offset="1" stop-color="#C2DAFA"/>
</linearGradient>
<linearGradient id="paint15_linear_56_1075" x1="394.076" y1="161.199" x2="401.172" y2="161.199" gradientUnits="userSpaceOnUse">
<stop offset="0.0326633" stop-color="#EEF9FF"/>
<stop offset="1" stop-color="#C2DAFA"/>
</linearGradient>
<linearGradient id="paint16_linear_56_1075" x1="271.869" y1="64.224" x2="283.462" y2="64.224" gradientUnits="userSpaceOnUse">
<stop offset="0.0326633" stop-color="#EEF9FF"/>
<stop offset="1" stop-color="#C2DAFA"/>
</linearGradient>
<linearGradient id="paint17_linear_56_1075" x1="496.335" y1="262.396" x2="507.928" y2="262.396" gradientUnits="userSpaceOnUse">
<stop offset="0.0326633" stop-color="#EEF9FF"/>
<stop offset="1" stop-color="#C2DAFA"/>
</linearGradient>
</defs>
</svg>
