<svg width="25" height="26" viewBox="0 0 25 26" fill="none" xmlns="http://www.w3.org/2000/svg">
<path d="M17.8674 15.8543H16.7381L16.3379 15.4672C17.7387 13.8329 18.582 11.7112 18.582 9.40319C18.582 4.25666 14.4225 0.0849609 9.29102 0.0849609C4.15952 0.0849609 0 4.25666 0 9.40319C0 14.5497 4.15952 18.7214 9.29102 18.7214C11.5923 18.7214 13.7078 17.8756 15.3373 16.4707L15.7233 16.8721V18.0046L22.8702 25.1582L25 23.0221L17.8674 15.8543ZM9.29102 15.8543C5.73185 15.8543 2.85878 12.9728 2.85878 9.40319C2.85878 5.83359 5.73185 2.95211 9.29102 2.95211C12.8502 2.95211 15.7233 5.83359 15.7233 9.40319C15.7233 12.9728 12.8502 15.8543 9.29102 15.8543Z" fill="white"/>
</svg>
