<svg width="23" height="19" viewBox="0 0 23 19" fill="none" xmlns="http://www.w3.org/2000/svg">
<path d="M15.5539 2.70613C14.7212 2.706 13.9218 3.0272 13.3276 3.60064C12.7335 4.17407 12.392 4.9539 12.3768 5.7723L12.3461 7.46855C12.3443 7.55962 12.323 7.64929 12.2835 7.73168C12.2439 7.81407 12.1871 7.88731 12.1168 7.9466C12.0464 8.00589 11.9641 8.04989 11.8753 8.07571C11.7864 8.10153 11.693 8.10859 11.6012 8.09643L9.89102 7.86811C7.64076 7.56656 5.48472 6.54773 3.41633 4.85364C2.76119 8.41845 4.04079 10.888 7.12257 12.7932L9.03649 13.9757C9.12743 14.0319 9.20297 14.1091 9.25653 14.2006C9.31008 14.2921 9.34 14.3952 9.34367 14.5007C9.34735 14.6062 9.32467 14.711 9.27761 14.8059C9.23055 14.9008 9.16055 14.983 9.07374 15.0451L7.32963 16.2977C8.36711 16.3612 9.35201 16.316 10.1693 16.1566C15.3381 15.142 18.7748 11.3188 18.7748 5.01195C18.7748 4.49715 17.6661 2.70613 15.5539 2.70613ZM10.1857 5.73245C10.2048 4.6943 10.5351 3.68475 11.1351 2.83022C11.7351 1.97569 12.5782 1.31415 13.5588 0.928429C14.5395 0.542705 15.6141 0.449939 16.6481 0.661747C17.6821 0.873554 18.6296 1.38052 19.3719 2.11918C20.1508 2.11379 20.8136 2.30765 22.2959 1.42452C21.9289 3.19077 21.7481 3.95759 20.9659 5.01195C20.9659 13.2423 15.8201 17.2443 10.5987 18.2685C7.01849 18.9707 1.81245 17.8173 0.320312 16.2858C1.08062 16.2276 4.17007 15.9013 5.95581 14.6165C4.44505 13.6375 -1.56841 10.1589 2.38323 0.806335C4.23799 2.93553 6.11905 4.38515 8.0253 5.15411C9.29394 5.66568 9.60508 5.65491 10.1868 5.73353L10.1857 5.73245Z" fill="white"/>
</svg>
